<!-- Kitchen-themed SVG icon for Mom's Recipe Box -->
<svg width="64" height="64" viewBox="0 0 64 64" fill="none" xmlns="http://www.w3.org/2000/svg">
  <!-- Background circle with warm gradient -->
  <circle cx="32" cy="32" r="30" fill="url(#gradient)"/>
  
  <!-- Recipe book/card -->
  <rect x="18" y="16" width="28" height="20" rx="3" fill="#ffffff" stroke="#d35400" stroke-width="1.5"/>
  
  <!-- Recipe lines -->
  <line x1="22" y1="22" x2="42" y2="22" stroke="#e67e22" stroke-width="1.5" stroke-linecap="round"/>
  <line x1="22" y1="26" x2="38" y2="26" stroke="#e67e22" stroke-width="1.2" stroke-linecap="round"/>
  <line x1="22" y1="30" x2="40" y2="30" stroke="#e67e22" stroke-width="1.2" stroke-linecap="round"/>
  
  <!-- Cooking utensils -->
  <!-- Spoon -->
  <path d="M16 40 C16 38, 17 37, 18.5 37 C20 37, 21 38, 21 40 L21 50 C21 51, 20 52, 18.5 52 C17 52, 16 51, 16 50 Z" fill="#d35400"/>
  <ellipse cx="18.5" cy="41" rx="2.5" ry="1.5" fill="#e67e22"/>
  
  <!-- Fork -->
  <rect x="43" y="37" width="1.5" height="15" rx="0.75" fill="#d35400"/>
  <rect x="45.5" y="37" width="1.5" height="15" rx="0.75" fill="#d35400"/>
  <rect x="48" y="37" width="1.5" height="15" rx="0.75" fill="#d35400"/>
  <rect x="43" y="50" width="6.5" height="2" rx="1" fill="#d35400"/>
  
  <!-- Heart accent (family love) -->
  <path d="M32 45 C30 42, 26 42, 26 46 C26 48, 32 52, 32 52 C32 52, 38 48, 38 46 C38 42, 34 42, 32 45 Z" fill="#c0392b" opacity="0.8"/>
  
  <!-- Gradient definition -->
  <defs>
    <linearGradient id="gradient" x1="0%" y1="0%" x2="100%" y2="100%">
      <stop offset="0%" style="stop-color:#fef2e6;stop-opacity:1" />
      <stop offset="100%" style="stop-color:#fef7f0;stop-opacity:1" />
    </linearGradient>
  </defs>
</svg>